HIERARCHY
ROOT Hips
{
	OFFSET 0.000000 100.481300 0.000000
	CHANNELS 6 Xposition Yposition Zposition Xrotation Yrotation Zrotation
	JOINT Spine
	{
		OFFSET -0.279200 12.230698 -2.892100
		CHANNELS 3 Xrotation Yrotation Zrotation
		JOINT Spine1
		{
			OFFSET -0.325700 14.269203 -3.374200
			CHANNELS 3 Xrotation Yrotation Zrotation
			JOINT Spine2
			{
				OFFSET -0.372300 16.307602 -0.352600
				CHANNELS 3 Xrotation Yrotation Zrotation
				JOINT Neck
				{
					OFFSET -0.418800 17.814194 8.416900
					CHANNELS 3 Xrotation Yrotation Zrotation
					JOINT Head
					{
						OFFSET 0.000000 7.031097 3.806800
						CHANNELS 3 Xrotation Yrotation Zrotation
						JOINT HeadTop_End
						{
							OFFSET 0.000000 24.646606 12.978600
							CHANNELS 3 Xrotation Yrotation Zrotation
							End Site
							{
								OFFSET 0.000000 27.854965 0.000000
							}
						}
					}
				}
				JOINT LeftShoulder
				{
					OFFSET 16.952999 14.495407 -7.737500
					CHANNELS 3 Xrotation Yrotation Zrotation
					JOINT LeftArm
					{
						OFFSET 9.308998 -2.777710 0.208600
						CHANNELS 3 Xrotation Yrotation Zrotation
						JOINT LeftForeArm
						{
							OFFSET 29.972298 0.000000 0.000000
							CHANNELS 3 Xrotation Yrotation Zrotation
							JOINT LeftHand
							{
								OFFSET 26.026505 0.000000 0.000000
								CHANNELS 3 Xrotation Yrotation Zrotation
								JOINT LeftHandThumb1
								{
									OFFSET 12.240501 -7.147949 9.207150
									CHANNELS 3 Xrotation Yrotation Zrotation
									JOINT LeftHandThumb2
									{
										OFFSET 4.138618 -2.389435 2.389433
										CHANNELS 3 Xrotation Yrotation Zrotation
										JOINT LeftHandThumb3
										{
											OFFSET 2.726913 -1.574387 1.574386
											CHANNELS 3 Xrotation Yrotation Zrotation
											JOINT LeftHandThumb4
											{
												OFFSET 3.941010 -2.275345 2.275342
												CHANNELS 3 Xrotation Yrotation Zrotation
												End Site
												{
													OFFSET -0.005798 5.087799 0.009903
												}
											}
										}
									}
								}
								JOINT LeftHandIndex1
								{
									OFFSET 24.424698 -1.985611 5.953459
									CHANNELS 3 Xrotation Yrotation Zrotation
									JOINT LeftHandIndex2
									{
										OFFSET 6.426697 0.000000 0.000000
										CHANNELS 3 Xrotation Yrotation Zrotation
										JOINT LeftHandIndex3
										{
											OFFSET 5.337898 0.000000 0.000000
											CHANNELS 3 Xrotation Yrotation Zrotation
											JOINT LeftHandIndex4
											{
												OFFSET 4.409401 0.000000 0.000000
												CHANNELS 3 Xrotation Yrotation Zrotation
												End Site
												{
													OFFSET 0.000000 4.409363 0.014373
												}
											}
										}
									}
								}
								JOINT LeftHandMiddle1
								{
									OFFSET 23.810104 0.000000 0.000000
									CHANNELS 3 Xrotation Yrotation Zrotation
									JOINT LeftHandMiddle2
									{
										OFFSET 7.176498 0.000000 0.000000
										CHANNELS 3 Xrotation Yrotation Zrotation
										JOINT LeftHandMiddle3
										{
											OFFSET 6.774902 0.000000 0.000000
											CHANNELS 3 Xrotation Yrotation Zrotation
											JOINT LeftHandMiddle4
											{
												OFFSET 5.403328 0.000000 0.000000
												CHANNELS 3 Xrotation Yrotation Zrotation
												End Site
												{
													OFFSET -0.027702 5.403244 0.017414
												}
											}
										}
									}
								}
								JOINT LeftHandRing1
								{
									OFFSET 22.908401 -0.839279 -6.020567
									CHANNELS 3 Xrotation Yrotation Zrotation
									JOINT LeftHandRing2
									{
										OFFSET 6.337502 0.000000 0.000000
										CHANNELS 3 Xrotation Yrotation Zrotation
										JOINT LeftHandRing3
										{
											OFFSET 5.779297 0.000000 0.000000
											CHANNELS 3 Xrotation Yrotation Zrotation
											JOINT LeftHandRing4
											{
												OFFSET 4.965698 0.000000 0.000000
												CHANNELS 3 Xrotation Yrotation Zrotation
												End Site
												{
													OFFSET 0.000000 4.965668 0.016186
												}
											}
										}
									}
								}
								JOINT LeftHandPinky1
								{
									OFFSET 20.037003 -1.530319 -10.950146
									CHANNELS 3 Xrotation Yrotation Zrotation
									JOINT LeftHandPinky2
									{
										OFFSET 5.254700 0.000000 0.000000
										CHANNELS 3 Xrotation Yrotation Zrotation
										JOINT LeftHandPinky3
										{
											OFFSET 4.810204 0.000000 0.000000
											CHANNELS 3 Xrotation Yrotation Zrotation
											JOINT LeftHandPinky4
											{
												OFFSET 3.647202 0.000000 0.000000
												CHANNELS 3 Xrotation Yrotation Zrotation
												End Site
												{
													OFFSET 0.000000 3.647186 0.011889
												}
											}
										}
									}
								}
							}
						}
					}
				}
				JOINT RightShoulder
				{
					OFFSET -15.141001 14.495407 -7.737500
					CHANNELS 3 Xrotation Yrotation Zrotation
					JOINT RightArm
					{
						OFFSET -9.308998 -2.777710 0.208500
						CHANNELS 3 Xrotation Yrotation Zrotation
						JOINT RightForeArm
						{
							OFFSET -29.972300 0.000000 0.000000
							CHANNELS 3 Xrotation Yrotation Zrotation
							JOINT RightHand
							{
								OFFSET -26.026505 0.000000 0.000000
								CHANNELS 3 Xrotation Yrotation Zrotation
								JOINT RightHandThumb1
								{
									OFFSET -12.240601 -7.148026 9.207092
									CHANNELS 3 Xrotation Yrotation Zrotation
									JOINT RightHandThumb2
									{
										OFFSET -4.138618 -2.389435 2.389433
										CHANNELS 3 Xrotation Yrotation Zrotation
										JOINT RightHandThumb3
										{
											OFFSET -2.726974 -1.574417 1.574421
											CHANNELS 3 Xrotation Yrotation Zrotation
											JOINT RightHandThumb4
											{
												OFFSET -3.941010 -2.275345 2.275343
												CHANNELS 3 Xrotation Yrotation Zrotation
												End Site
												{
													OFFSET 0.005814 5.087799 0.009927
												}
											}
										}
									}
								}
								JOINT RightHandIndex1
								{
									OFFSET -24.424698 -1.985657 5.953444
									CHANNELS 3 Xrotation Yrotation Zrotation
									JOINT RightHandIndex2
									{
										OFFSET -6.426697 0.000000 0.000000
										CHANNELS 3 Xrotation Yrotation Zrotation
										JOINT RightHandIndex3
										{
											OFFSET -5.337898 0.000000 0.000000
											CHANNELS 3 Xrotation Yrotation Zrotation
											JOINT RightHandIndex4
											{
												OFFSET -4.409401 0.000000 0.000000
												CHANNELS 3 Xrotation Yrotation Zrotation
												End Site
												{
													OFFSET 0.000000 4.409363 0.014408
												}
											}
										}
									}
								}
								JOINT RightHandMiddle1
								{
									OFFSET -23.810097 0.000000 0.000000
									CHANNELS 3 Xrotation Yrotation Zrotation
									JOINT RightHandMiddle2
									{
										OFFSET -7.176498 0.000000 0.000000
										CHANNELS 3 Xrotation Yrotation Zrotation
										JOINT RightHandMiddle3
										{
											OFFSET -6.774902 0.000000 0.000000
											CHANNELS 3 Xrotation Yrotation Zrotation
											JOINT RightHandMiddle4
											{
												OFFSET -5.403328 0.000000 0.000000
												CHANNELS 3 Xrotation Yrotation Zrotation
												End Site
												{
													OFFSET 0.027702 5.403244 0.017457
												}
											}
										}
									}
								}
								JOINT RightHandRing1
								{
									OFFSET -22.908302 -0.839325 -6.020576
									CHANNELS 3 Xrotation Yrotation Zrotation
									JOINT RightHandRing2
									{
										OFFSET -6.337502 0.000000 0.000000
										CHANNELS 3 Xrotation Yrotation Zrotation
										JOINT RightHandRing3
										{
											OFFSET -5.779297 0.000000 0.000000
											CHANNELS 3 Xrotation Yrotation Zrotation
											JOINT RightHandRing4
											{
												OFFSET -4.965698 0.000000 0.000000
												CHANNELS 3 Xrotation Yrotation Zrotation
												End Site
												{
													OFFSET 0.000000 4.965668 0.016226
												}
											}
										}
									}
								}
								JOINT RightHandPinky1
								{
									OFFSET -20.037003 -1.530334 -10.950259
									CHANNELS 3 Xrotation Yrotation Zrotation
									JOINT RightHandPinky2
									{
										OFFSET -5.254700 0.000000 0.000000
										CHANNELS 3 Xrotation Yrotation Zrotation
										JOINT RightHandPinky3
										{
											OFFSET -4.810204 0.000000 0.000000
											CHANNELS 3 Xrotation Yrotation Zrotation
											JOINT RightHandPinky4
											{
												OFFSET -3.647202 0.000000 0.000000
												CHANNELS 3 Xrotation Yrotation Zrotation
												End Site
												{
													OFFSET 0.000000 3.647186 0.011917
												}
											}
										}
									}
								}
							}
						}
					}
				}
			}
		}
	}
	JOINT LeftUpLeg
	{
		OFFSET 15.427100 -6.655098 0.678600
		CHANNELS 3 Xrotation Yrotation Zrotation
		JOINT LeftLeg
		{
			OFFSET 4.081073 -39.591068 13.024000
			CHANNELS 3 Xrotation Yrotation Zrotation
			JOINT LeftFoot
			{
				OFFSET -4.081074 -37.707932 -15.979700
				CHANNELS 3 Xrotation Yrotation Zrotation
				JOINT LeftToeBase
				{
					OFFSET 5.346399 -15.068900 20.645000
					CHANNELS 3 Xrotation Yrotation Zrotation
					JOINT LeftToe_End
					{
						OFFSET 2.754700 0.931300 11.300900
						CHANNELS 3 Xrotation Yrotation Zrotation
						End Site
						{
							OFFSET 0.000000 11.669021 0.000000
						}
					}
				}
			}
		}
	}
	JOINT RightUpLeg
	{
		OFFSET -15.569500 -6.655098 0.678600
		CHANNELS 3 Xrotation Yrotation Zrotation
		JOINT RightLeg
		{
			OFFSET -4.081825 -39.591045 13.023800
			CHANNELS 3 Xrotation Yrotation Zrotation
			JOINT RightFoot
			{
				OFFSET 4.081824 -37.707954 -15.979600
				CHANNELS 3 Xrotation Yrotation Zrotation
				JOINT RightToeBase
				{
					OFFSET -5.346400 -15.068900 20.645000
					CHANNELS 3 Xrotation Yrotation Zrotation
					JOINT RightToe_End
					{
						OFFSET -2.754700 0.931300 11.300900
						CHANNELS 3 Xrotation Yrotation Zrotation
						End Site
						{
							OFFSET 0.000000 11.669021 0.000000
						}
					}
				}
			}
		}
	}
}
MOTION
Frames: 4
Frame Time: 0.033333
0.762217 90.549484 -1.540730 -3.363217 -9.716041 2.033918 0.749420 -0.824037 -1.392715 -0.206926 -0.743617 -0.507996 -0.202304 -0.764241 -0.482937 -1.477342 1.969655 3.366327 5.780473 14.909297 -3.112873 0.000000 0.000000 -0.000000 0.613039 3.409068 -10.433313 59.647031 -57.615227 -13.978876 0.000004 -23.112030 0.000016 -27.113582 -6.444542 3.009505 -14.736119 22.603218 6.590236 7.443479 15.382313 -1.194382 1.132777 5.313365 1.863145 0.000003 -0.000001 -0.000001 0.400998 2.319621 -19.612461 0.105483 1.203046 -10.021305 0.026416 0.603835 -5.010095 0.000001 0.000000 -0.000001 0.400335 2.317808 -19.596458 0.105821 1.204952 -10.037276 0.026402 0.603834 -5.010098 -0.000004 -0.000001 -0.000001 0.400998 2.319621 -19.612460 0.105484 1.203047 -10.021306 0.026417 0.603839 -5.010096 -0.000001 -0.000001 -0.000001 1.751571 6.143737 -19.201757 0.098227 -2.852196 -10.524259 0.026409 0.603845 -5.010095 0.000002 0.000000 -0.000000 4.398611 11.091866 6.650364 8.772642 43.647702 60.257090 -0.000018 21.023799 0.000002 -9.110493 -8.812891 4.832197 4.342461 -19.025601 -16.436212 12.582709 -15.474282 3.383283 2.512279 -3.445681 -0.976293 -0.000002 0.000001 0.000000 0.104995 -1.206166 9.948719 0.274618 -1.938519 16.124758 0.068966 -0.978929 8.060057 0.000001 -0.000001 0.000002 0.104996 -1.206166 9.948719 0.274624 -1.938519 16.124757 0.068968 -0.978924 8.060061 0.000001 -0.000001 -0.000001 0.104990 -1.206167 9.948719 0.274620 -1.938521 16.124757 0.068968 -0.978927 8.060056 0.000000 0.000002 -0.000000 0.104995 -1.206166 9.948719 0.274620 -1.938521 16.124757 0.068970 -0.978926 8.060054 0.000004 -0.000003 -0.000004 -14.705667 10.441685 7.459047 27.162674 8.595210 3.351232 -6.645937 6.289468 -11.063187 -0.000056 0.000003 0.000003 -0.000000 0.000000 0.000000 -3.573210 -11.502021 -6.220238 29.287527 -8.364951 -0.127448 -21.223831 -13.095549 5.780702 -0.000026 0.000019 -0.000004 0.000000 -0.000000 0.000000 
0.628178 90.511948 -1.541926 -3.503788 -9.331351 2.130296 0.666514 -0.902622 -1.320843 -0.264720 -0.807877 -0.444369 -0.259691 -0.826297 -0.417478 -1.654375 1.863406 3.529150 4.982716 14.586349 -2.707633 0.000000 -0.000000 0.000000 0.596045 3.465039 -10.204796 59.618474 -57.795777 -14.364286 -0.000006 -23.121150 -0.000026 -27.551284 -6.528915 3.075794 -14.736116 22.603217 6.590237 7.443479 15.382317 -1.194382 1.132778 5.313366 1.863146 -0.000002 -0.000001 -0.000000 0.401002 2.319620 -19.612463 0.105483 1.203045 -10.021306 0.026416 0.603836 -5.010097 0.000000 0.000001 -0.000001 0.400339 2.317807 -19.596460 0.105822 1.204951 -10.037280 0.026398 0.603832 -5.010097 -0.000001 0.000000 -0.000001 0.401002 2.319620 -19.612461 0.105480 1.203043 -10.021306 0.026411 0.603837 -5.010094 0.000003 0.000001 0.000001 1.751571 6.143735 -19.201757 0.098231 -2.852194 -10.524259 0.026409 0.603844 -5.010092 0.000001 0.000001 -0.000001 4.348141 10.933581 6.925641 9.279039 43.033590 59.926154 0.000006 21.030637 0.000006 -9.329447 -8.993087 4.944793 4.342462 -19.025596 -16.436208 12.582713 -15.474282 3.383278 2.512280 -3.445681 -0.976293 -0.000004 -0.000000 -0.000001 0.104994 -1.206167 9.948720 0.274613 -1.938518 16.124760 0.068974 -0.978929 8.060053 -0.000001 -0.000001 0.000001 0.104995 -1.206167 9.948719 0.274617 -1.938520 16.124758 0.068977 -0.978924 8.060059 -0.000004 -0.000000 -0.000003 0.104991 -1.206167 9.948717 0.274620 -1.938519 16.124758 0.068973 -0.978926 8.060057 -0.000002 0.000001 0.000001 0.104994 -1.206167 9.948719 0.274615 -1.938522 16.124757 0.068972 -0.978927 8.060054 -0.000002 -0.000001 -0.000001 -14.604521 10.065098 7.357166 27.141363 8.564151 3.292547 -6.542250 6.289934 -11.094135 -0.000056 0.000002 0.000003 0.000000 0.000000 0.000000 -3.329487 -11.679863 -6.313963 29.351348 -8.335961 0.070272 -21.434438 -13.267142 5.613874 -0.000026 0.000019 -0.000004 -0.000000 -0.000002 -0.000000 
0.502506 90.478355 -1.498859 -3.641211 -8.938402 2.225725 0.591831 -0.983349 -1.245791 -0.317654 -0.873752 -0.384916 -0.312208 -0.890180 -0.356103 -1.860712 1.757781 3.697017 4.119210 14.266029 -2.287097 0.000000 0.000000 -0.000000 0.577837 3.489875 -9.906745 59.546976 -58.038952 -14.822707 -0.000000 -23.103380 0.000000 -28.188027 -6.604115 3.083003 -14.736116 22.603217 6.590239 7.443484 15.382319 -1.194383 1.132784 5.313366 1.863146 0.000001 0.000000 -0.000001 0.401001 2.319623 -19.612460 0.105483 1.203045 -10.021306 0.026420 0.603834 -5.010098 0.000000 0.000001 -0.000002 0.400340 2.317806 -19.596462 0.105822 1.204952 -10.037276 0.026403 0.603831 -5.010097 -0.000000 -0.000001 -0.000001 0.401001 2.319623 -19.612460 0.105480 1.203043 -10.021306 0.026418 0.603838 -5.010095 0.000001 -0.000002 -0.000000 1.751571 6.143738 -19.201760 0.098230 -2.852194 -10.524259 0.026408 0.603847 -5.010091 0.000002 0.000001 0.000000 4.297991 10.753232 7.184300 9.751102 42.395493 59.611200 -0.000013 21.008728 0.000015 -9.502613 -9.118588 5.052647 4.342455 -19.025600 -16.436208 12.582710 -15.474284 3.383281 2.512279 -3.445683 -0.976291 0.000002 -0.000004 -0.000002 0.104994 -1.206166 9.948719 0.274613 -1.938518 16.124760 0.068972 -0.978928 8.060056 0.000001 0.000000 0.000002 0.104995 -1.206166 9.948718 0.274615 -1.938518 16.124760 0.068975 -0.978925 8.060060 0.000000 -0.000001 -0.000001 0.104990 -1.206166 9.948719 0.274620 -1.938521 16.124758 0.068970 -0.978926 8.060058 0.000004 0.000002 0.000001 0.104994 -1.206166 9.948718 0.274614 -1.938520 16.124758 0.068969 -0.978927 8.060053 -0.000000 0.000000 -0.000001 -14.498422 9.827736 7.251173 27.123019 8.563275 3.311633 -6.485601 6.138999 -11.156996 -0.000056 0.000002 0.000003 -0.000000 -0.000002 -0.000000 -3.041093 -11.882821 -6.421397 29.376326 -8.243010 0.299763 -21.659650 -13.470127 5.419793 -0.000026 0.000019 -0.000004 -0.000000 -0.000000 0.000000 
0.381440 90.457367 -1.406856 -3.777130 -8.583566 2.323181 0.511736 -1.049633 -1.166640 -0.377404 -0.928454 -0.332198 -0.371581 -0.943386 -0.301739 -2.135819 1.643075 3.884973 3.118840 13.921139 -1.816519 -0.000000 -0.000001 0.000000 0.552770 3.489917 -9.464764 59.186977 -58.386752 -15.572078 -0.000001 -23.078173 0.000001 -28.890228 -6.660270 3.016548 -14.736123 22.603220 6.590239 7.443480 15.382320 -1.194379 1.132782 5.313366 1.863148 -0.000002 0.000002 0.000001 0.400998 2.319621 -19.612463 0.105480 1.203045 -10.021308 0.026416 0.603836 -5.010094 -0.000000 -0.000000 -0.000001 0.400338 2.317806 -19.596458 0.105820 1.204955 -10.037275 0.026399 0.603833 -5.010096 -0.000001 0.000001 0.000001 0.400998 2.319621 -19.612460 0.105479 1.203044 -10.021309 0.026415 0.603839 -5.010093 0.000003 -0.000000 0.000001 1.751568 6.143737 -19.201760 0.098231 -2.852194 -10.524261 0.026410 0.603844 -5.010094 -0.000000 -0.000001 -0.000001 4.249527 10.549682 7.400002 10.077701 41.768915 59.436456 0.000005 20.780755 0.000000 -9.652930 -9.088999 5.132092 4.342466 -19.025600 -16.436206 12.582706 -15.474279 3.383281 2.512280 -3.445681 -0.976293 0.000001 -0.000001 0.000000 0.104996 -1.206168 9.948720 0.274616 -1.938519 16.124760 0.068976 -0.978928 8.060056 -0.000002 -0.000002 -0.000001 0.104997 -1.206168 9.948719 0.274618 -1.938521 16.124757 0.068978 -0.978926 8.060059 0.000000 -0.000001 -0.000002 0.104992 -1.206168 9.948719 0.274624 -1.938521 16.124760 0.068972 -0.978926 8.060059 0.000000 -0.000000 -0.000001 0.104996 -1.206168 9.948719 0.274616 -1.938523 16.124758 0.068974 -0.978927 8.060054 0.000001 -0.000001 -0.000001 -14.389300 9.938911 7.128181 27.087057 8.600111 3.532238 -6.485624 5.719001 -11.297931 -0.000056 0.000003 0.000003 -0.000000 0.000000 0.000000 -2.703886 -12.064067 -6.532082 29.352588 -8.131369 0.536342 -21.884286 -13.686074 5.227162 -0.000026 0.000019 -0.000004 0.000000 -0.000000 -0.000000 
